General
Complete name                    : Reservoir Dogs.mkv
Format                           : Matroska
File size                        : 1.38 GiB
Duration                         : 1h 35mn
Overall bit rate                 : 2 080 Kbps


Video
ID                               : 1
Format                           : AVC

Codec ID                         : V_MPEG4/ISO/AVC
Duration                         : 1h 35mn
Bit rate                         : 1 586 Kbps
Nominal bit rate                 : 1 603 Kbps
Width                            : 720 pixels
Height                           : 432 pixels
Display aspect ratio             : 2.35
Frame rate                       : 25.000 fps
Resolution                       : 24 bits
Colorimetry                      : 4:2:0
Scan type                        : Progressive
Bits/(Pixel*Frame)               : 0.204
Stream size                      : 1.06 GiB (76%)
Writing library                  : x264 core 79


Audio
ID                               : 2
Format                           : AC-3
Format/Info                      : Audio Coding 3
Codec ID                         : A_AC3
Duration                         : 1h 35mn
Bit rate mode                    : Constant
Bit rate                         : 448 Kbps
Channel(s)                       : 6 channels
Channel positions                : Front: L C R, Surround: L R, LFE
Sampling rate                    : 48.0 KHz
Stream size                      : 305 MiB (22%)

Text #1
Language                         : Danish

Text #2
Language                         : Finnish

Text #3
Language                         : Norwegian

Text #4
Language                         : Swedish